# xmcd
#
# Track frame offsets:
# 150
# 11915
# 22532
# 42415
# 53322
# 65025
# 76877
# 89495
# 102615
# 115402
# 128285
# 137442
# 151210
# 164485
# 178140
# 188840
# 201632
# 211930
# 222225
# 234535
#
# Disc length: 3253 seconds
#
# Revision: 0
# Processed by: cddbd v1.5.1PL0 Copyright (c) Steve Scherf et al.
# Submitted via: Audion 3.0.2 (http://www.panic.com/audion/)
#
DISCID=130cb314
DTITLE=Various Artist - Country and Western Part 1
DYEAR=1900
DGENRE=
TTITLE0=I Walk the Line/Johnny Cash
TTITLE1=He'll Have to Go/Jim Reeves
TTITLE2=El Paso/Marty Robbins
TTITLE3=Green, Green Grass of Home/Porter Wagoner
TTITLE4=Kaw-Liga/Hank Williams
TTITLE5=Sixteen Tons/Tennessee Ernie Ford
TTITLE6=Still/Bill Anderson
TTITLE7=The Three Bells/The Browns
TTITLE8=Detroit City/Bobby Bare
TTITLE9=Pins and Needles/Roy Acuff
TTITLE10=Buckaroo/Buck Owens
TTITLE11=Big Bad John/Jimmy Dean
TTITLE12=Hey, Good Lookin'/Hank Williams
TTITLE13=City Lights/Ray Price
TTITLE14=The Alpine Milkman/Elton Britt
TTITLE15=I'm Movin' On/Hank Snow
TTITLE16=North Wind/Texas Bill Strength
TTITLE17=Country Gentleman/Chet Atkins
TTITLE18=Your Cheatin' Heart/Hank Williams
TTITLE19=Blue Moon of Kentucky/Bill Monroe
EXTD=
EXTT0=
EXTT1=
EXTT2=
EXTT3=
EXTT4=
EXTT5=
EXTT6=
EXTT7=
EXTT8=
EXTT9=
EXTT10=
EXTT11=
EXTT12=
EXTT13=
EXTT14=
EXTT15=
EXTT16=
EXTT17=
EXTT18=
EXTT19=
PLAYORDER=
